<svg xmlns="http://www.w3.org/2000/svg" xmlns:xlink="http://www.w3.org/1999/xlink" viewBox="0 0 1920 1080" width="1920" height="1080">
<g fill="#fff">
	<path fill-opacity=".1" d="M1111.9 0c-169.3 203.1-154.7 344.5 120.6 398.2 332.5 60.6 286.9 276.9 80.1 489.9-63.5 56.7-150.4 121.5-254.2 191.9h46.5c115.9-77.6 212.6-148.7 281.6-210.4 206.9-213 252.5-429.3-80.1-489.9-266.9-52-288.8-186.6-135.6-379.7h-58.9z"/><path fill-opacity=".1" d="M1111.9 0c-169.3 203.1-154.8 344.5 120.6 398.2 332.5 60.6 286.9 276.9 80.1 489.9-63.5 56.7-150.4 121.5-254.2 191.9h92.6c128.3-84.8 234.9-162.3 309.4-228.8 206.9-213 252.5-429.3-80.1-489.9-258.5-50.4-287.3-178-150-361.3h-118.4z"/><path fill-opacity=".1" d="M1111.9 0c-169.3 203.1-154.7 344.5 120.6 398.2 332.5 60.6 286.9 276.9 80.1 489.9-63.5 56.7-150.5 121.5-254.2 191.9h138.3c140.8-92 257.6-176 337.4-247.3 206.9-213 252.5-429.3-80.1-489.9-249.6-48.6-284.9-169.4-163.2-342.8h-178.9z"/><path fill-opacity=".1" d="M1111.9 0c-169.3 203.1-154.7 344.5 120.6 398.2 332.5 60.6 286.9 276.9 80.1 489.9-63.5 56.7-150.5 121.5-254.2 191.9h183.8c153.5-99.3 280.7-189.7 365.8-265.7 206.9-213 252.5-429.3-80.1-489.9-240.7-47-282.1-160.9-175.8-324.4h-240.2z"/><path fill-opacity=".1" d="M1111.9 0c-169.3 203.1-154.8 344.5 120.6 398.2 332.5 60.6 286.9 276.9 80.1 489.9-63.5 56.7-150.5 121.5-254.2 191.9h229c166.3-106.6 304.1-203.5 394.5-284.2 206.9-213 252.5-429.3-80.1-489.9-231.6-45.1-278.7-152.3-187.3-305.9h-302.6z"/><path fill-opacity=".1" d="M739.4 0h-242C263.1 156.4 99.4 327.9 73.1 528.9c-30.6 255.8 387 147.4 387 312.5-2.9 78-31.5 157.3-79.7 238.6h307.2c85.2-114.2 137.8-223.7 141.8-330.9 0-165.2-417.6-56.7-387-312.5C463.6 274.4 574.3 131.4 739.4 0z"/><path fill-opacity=".1" d="M739.4 0H544C324.4 151.4 172.2 317.3 146.9 510.4c-30.6 255.8 387 147.4 387 312.5-3.1 83.9-36 169.2-91 257.1h244.6c85.2-114.2 137.8-223.7 141.8-330.9 0-165.2-417.6-56.7-387-312.5C463.6 274.4 574.3 131.4 739.4 0z"/><path fill-opacity=".1" d="M739.4 0H591.5C386.1 146.4 245.1 306.7 220.8 492c-30.6 255.8 387 147.4 387 312.5C604.5 894.3 567 985.7 505 1080h182.6c85.2-114.2 137.8-223.7 141.8-330.9 0-165.2-417.6-56.7-387-312.5C463.6 274.4 574.3 131.4 739.4 0z"/><path fill-opacity=".1" d="M739.4 0h-99.5c-191.5 141.4-322 296-345.3 473.5-30.6 255.8 387 147.4 387 312.5-3.5 95.6-45.8 193.1-115.3 294h121.2c85.2-114.2 137.8-223.7 141.8-330.9 0-165.2-417.6-56.7-387-312.5C463.6 274.4 574.3 131.4 739.4 0z"/><path fill-opacity=".1" d="M739.4 0h-50.2C511.1 136.4 390.7 285.2 368.5 455c-30.6 255.8 387 147.4 387 312.5-3.8 101.5-51.1 205-128.3 312.5h60.3c85.2-114.2 137.8-223.7 141.8-330.9 0-165.2-417.6-56.7-387-312.5C463.6 274.4 574.3 131.4 739.4 0z"/>
</g>
</svg>